M48
;GenerationSoftware,Autodesk,EAGLE,9.2.0*%
;CreationDate,2019-04-09T11:27:12Z*%
FMAT,2
ICI,OFF
METRIC,TZ,000.000
T2C0.813
T1C1.016
%
G90
M71
T1
X59120Y1970
X32450Y24830
X74360Y7050
X74360Y9590
X46420Y24830
X43880Y24830
X48960Y24830
X40070Y24830
X12130Y24830
X4510Y24830
X54040Y24830
X1970Y24830
X1970Y1970
X74360Y22290
X27370Y1970
X12130Y1970
X9590Y1970
X4510Y1970
X71820Y24830
X74360Y24830
X56580Y1970
X61660Y1970
X74360Y19750
X74360Y1970
X69280Y24830
X71820Y1970
X69280Y1970
X74360Y17210
X54040Y1970
X66740Y24830
X46350Y1970
X51500Y1970
X66740Y1970
X64200Y1970
X41310Y1970
X51500Y24830
X7050Y1970
X17210Y1970
X61660Y24830
X14670Y1970
X19750Y1970
X64200Y24830
X59120Y24830
X24830Y1970
X56580Y24830
X33720Y1970
X36260Y1970
X38800Y1970
X34990Y24830
X27370Y24830
X29910Y24830
X22290Y1970
X22290Y24830
X19750Y24830
X17210Y24830
X14670Y24830
X24830Y24830
X37530Y24830
X9590Y24830
X7050Y24830
X48960Y1970
X74360Y4510
T2
X28770Y15240
X12030Y10890
X14570Y10890
X51880Y13670
X51880Y11130
X41040Y22290
X43580Y22290
X44270Y4210
X41730Y4210
X4510Y17210
X55470Y11860
X58010Y11860
X30788Y4900
X33328Y4900
X12030Y14500
X14570Y14500
X1970Y17210
X28770Y17780
X14670Y21690
X12130Y21690
X29910Y3240
X32450Y3240
X19380Y11530
X19380Y14070
M30