G04 EAGLE Gerber RS-274X export*
G75*
%MOMM*%
%FSLAX34Y34*%
%LPD*%
%INSilkscreen Top*%
%IPPOS*%
%AMOC8*
5,1,8,0,0,1.08239X$1,22.5*%
G01*
%ADD10C,0.100000*%
%ADD11C,0.101600*%
%ADD12C,0.152400*%
%ADD13C,0.127000*%


D10*
X69000Y73000D02*
X64000Y73000D01*
X64000Y68000D01*
X64000Y38000D02*
X64000Y33000D01*
X69000Y33000D01*
X89000Y33000D02*
X94000Y33000D01*
X94000Y38000D01*
X94000Y73000D02*
X89000Y73000D01*
X94000Y73000D02*
X94000Y68000D01*
D11*
X63428Y136058D02*
X63428Y147742D01*
X67323Y141251D01*
X71218Y147742D01*
X71218Y136058D01*
X77201Y136058D02*
X77201Y147742D01*
X83692Y147742D02*
X77201Y140602D01*
X79797Y143198D02*
X83692Y136058D01*
X88081Y145146D02*
X91326Y147742D01*
X91326Y136058D01*
X88081Y136058D02*
X94572Y136058D01*
D12*
X144700Y82550D02*
X144700Y69850D01*
X138350Y63500D01*
X125650Y63500D02*
X119300Y69850D01*
X138350Y63500D02*
X144700Y57150D01*
X144700Y44450D01*
X138350Y38100D01*
X125650Y38100D02*
X119300Y44450D01*
X119300Y57150D01*
X125650Y63500D01*
X125650Y88900D02*
X138350Y88900D01*
X144700Y82550D01*
X125650Y88900D02*
X119300Y82550D01*
X119300Y69850D01*
X138350Y38100D02*
X144700Y31750D01*
X144700Y19050D01*
X138350Y12700D01*
X125650Y12700D02*
X119300Y19050D01*
X119300Y31750D01*
X125650Y38100D01*
X125650Y12700D02*
X138350Y12700D01*
D13*
X128825Y94615D02*
X126285Y97790D01*
X137715Y97790D01*
X137715Y94615D02*
X137715Y100965D01*
X158035Y65786D02*
X158135Y65784D01*
X158234Y65778D01*
X158334Y65768D01*
X158432Y65755D01*
X158531Y65737D01*
X158628Y65716D01*
X158724Y65691D01*
X158820Y65662D01*
X158914Y65629D01*
X159007Y65593D01*
X159098Y65553D01*
X159188Y65509D01*
X159276Y65462D01*
X159362Y65412D01*
X159446Y65358D01*
X159528Y65301D01*
X159607Y65241D01*
X159685Y65177D01*
X159759Y65111D01*
X159831Y65042D01*
X159900Y64970D01*
X159966Y64896D01*
X160030Y64818D01*
X160090Y64739D01*
X160147Y64657D01*
X160201Y64573D01*
X160251Y64487D01*
X160298Y64399D01*
X160342Y64309D01*
X160382Y64218D01*
X160418Y64125D01*
X160451Y64031D01*
X160480Y63935D01*
X160505Y63839D01*
X160526Y63742D01*
X160544Y63643D01*
X160557Y63545D01*
X160567Y63445D01*
X160573Y63346D01*
X160575Y63246D01*
X160573Y63105D01*
X160568Y62964D01*
X160558Y62823D01*
X160545Y62682D01*
X160529Y62542D01*
X160508Y62402D01*
X160484Y62263D01*
X160456Y62124D01*
X160425Y61987D01*
X160390Y61850D01*
X160352Y61714D01*
X160310Y61579D01*
X160264Y61446D01*
X160215Y61313D01*
X160162Y61182D01*
X160106Y61053D01*
X160047Y60924D01*
X159984Y60798D01*
X159918Y60673D01*
X159849Y60550D01*
X159776Y60429D01*
X159700Y60310D01*
X159621Y60192D01*
X159540Y60077D01*
X159455Y59965D01*
X159367Y59854D01*
X159276Y59746D01*
X159183Y59640D01*
X159086Y59537D01*
X158987Y59436D01*
X151685Y59754D02*
X151585Y59756D01*
X151486Y59762D01*
X151386Y59772D01*
X151288Y59785D01*
X151189Y59803D01*
X151092Y59824D01*
X150996Y59849D01*
X150900Y59878D01*
X150806Y59911D01*
X150713Y59947D01*
X150622Y59987D01*
X150532Y60031D01*
X150444Y60078D01*
X150358Y60128D01*
X150274Y60182D01*
X150192Y60239D01*
X150113Y60299D01*
X150035Y60363D01*
X149961Y60429D01*
X149889Y60498D01*
X149820Y60570D01*
X149754Y60644D01*
X149690Y60722D01*
X149630Y60801D01*
X149573Y60883D01*
X149519Y60967D01*
X149469Y61053D01*
X149422Y61141D01*
X149378Y61231D01*
X149338Y61322D01*
X149302Y61415D01*
X149269Y61509D01*
X149240Y61605D01*
X149215Y61701D01*
X149194Y61798D01*
X149176Y61897D01*
X149163Y61995D01*
X149153Y62095D01*
X149147Y62194D01*
X149145Y62294D01*
X149147Y62427D01*
X149152Y62560D01*
X149162Y62693D01*
X149175Y62826D01*
X149192Y62958D01*
X149212Y63090D01*
X149236Y63221D01*
X149264Y63351D01*
X149295Y63481D01*
X149330Y63609D01*
X149369Y63737D01*
X149411Y63863D01*
X149457Y63988D01*
X149506Y64112D01*
X149558Y64235D01*
X149614Y64356D01*
X149674Y64475D01*
X149736Y64593D01*
X149802Y64708D01*
X149871Y64822D01*
X149944Y64934D01*
X150019Y65044D01*
X150098Y65152D01*
X153908Y61023D02*
X153856Y60939D01*
X153801Y60856D01*
X153742Y60776D01*
X153681Y60698D01*
X153617Y60623D01*
X153549Y60550D01*
X153479Y60479D01*
X153407Y60412D01*
X153332Y60347D01*
X153254Y60285D01*
X153174Y60226D01*
X153092Y60170D01*
X153008Y60118D01*
X152922Y60069D01*
X152834Y60023D01*
X152744Y59980D01*
X152653Y59941D01*
X152560Y59906D01*
X152466Y59874D01*
X152371Y59846D01*
X152275Y59821D01*
X152178Y59801D01*
X152080Y59783D01*
X151982Y59770D01*
X151883Y59761D01*
X151784Y59755D01*
X151685Y59753D01*
X155812Y64516D02*
X155864Y64600D01*
X155919Y64683D01*
X155978Y64763D01*
X156039Y64841D01*
X156103Y64916D01*
X156171Y64989D01*
X156241Y65060D01*
X156313Y65127D01*
X156388Y65192D01*
X156466Y65254D01*
X156546Y65313D01*
X156628Y65369D01*
X156712Y65421D01*
X156798Y65470D01*
X156886Y65516D01*
X156976Y65559D01*
X157067Y65598D01*
X157160Y65633D01*
X157254Y65665D01*
X157349Y65693D01*
X157445Y65718D01*
X157542Y65738D01*
X157640Y65756D01*
X157738Y65769D01*
X157837Y65778D01*
X157936Y65784D01*
X158035Y65786D01*
X155813Y64516D02*
X153908Y61024D01*
X149145Y69850D02*
X160575Y73660D01*
X149145Y77470D01*
X149145Y85408D02*
X149147Y85512D01*
X149153Y85617D01*
X149162Y85721D01*
X149175Y85824D01*
X149193Y85927D01*
X149213Y86029D01*
X149238Y86131D01*
X149266Y86231D01*
X149298Y86331D01*
X149334Y86429D01*
X149373Y86526D01*
X149415Y86621D01*
X149461Y86715D01*
X149511Y86807D01*
X149563Y86897D01*
X149619Y86985D01*
X149679Y87071D01*
X149741Y87155D01*
X149806Y87236D01*
X149874Y87315D01*
X149946Y87392D01*
X150019Y87465D01*
X150096Y87537D01*
X150175Y87605D01*
X150256Y87670D01*
X150340Y87732D01*
X150426Y87792D01*
X150514Y87848D01*
X150604Y87900D01*
X150696Y87950D01*
X150790Y87996D01*
X150885Y88038D01*
X150982Y88077D01*
X151080Y88113D01*
X151180Y88145D01*
X151280Y88173D01*
X151382Y88198D01*
X151484Y88218D01*
X151587Y88236D01*
X151690Y88249D01*
X151794Y88258D01*
X151899Y88264D01*
X152003Y88266D01*
X149145Y85408D02*
X149147Y85290D01*
X149153Y85171D01*
X149162Y85053D01*
X149175Y84936D01*
X149193Y84819D01*
X149213Y84702D01*
X149238Y84586D01*
X149266Y84471D01*
X149299Y84358D01*
X149334Y84245D01*
X149374Y84133D01*
X149416Y84023D01*
X149463Y83914D01*
X149513Y83806D01*
X149566Y83701D01*
X149623Y83597D01*
X149683Y83495D01*
X149746Y83395D01*
X149813Y83297D01*
X149882Y83201D01*
X149955Y83108D01*
X150031Y83017D01*
X150109Y82928D01*
X150191Y82842D01*
X150275Y82759D01*
X150361Y82678D01*
X150451Y82601D01*
X150542Y82526D01*
X150636Y82454D01*
X150733Y82385D01*
X150831Y82320D01*
X150932Y82257D01*
X151035Y82198D01*
X151139Y82142D01*
X151245Y82090D01*
X151353Y82041D01*
X151462Y81996D01*
X151573Y81954D01*
X151685Y81916D01*
X154225Y87313D02*
X154150Y87389D01*
X154071Y87464D01*
X153990Y87535D01*
X153906Y87604D01*
X153820Y87669D01*
X153732Y87731D01*
X153642Y87791D01*
X153550Y87847D01*
X153455Y87900D01*
X153359Y87949D01*
X153261Y87995D01*
X153162Y88038D01*
X153061Y88077D01*
X152959Y88112D01*
X152856Y88144D01*
X152752Y88172D01*
X152647Y88197D01*
X152540Y88218D01*
X152434Y88235D01*
X152327Y88248D01*
X152219Y88257D01*
X152111Y88263D01*
X152003Y88265D01*
X154225Y87313D02*
X160575Y81915D01*
X160575Y88265D01*
D12*
X39100Y82550D02*
X39100Y69850D01*
X32750Y63500D01*
X20050Y63500D02*
X13700Y69850D01*
X32750Y63500D02*
X39100Y57150D01*
X39100Y44450D01*
X32750Y38100D01*
X20050Y38100D02*
X13700Y44450D01*
X13700Y57150D01*
X20050Y63500D01*
X20050Y88900D02*
X32750Y88900D01*
X39100Y82550D01*
X20050Y88900D02*
X13700Y82550D01*
X13700Y69850D01*
X32750Y38100D02*
X39100Y31750D01*
X39100Y19050D01*
X32750Y12700D01*
X20050Y12700D02*
X13700Y19050D01*
X13700Y31750D01*
X20050Y38100D01*
X20050Y12700D02*
X32750Y12700D01*
D13*
X23225Y94615D02*
X20685Y97790D01*
X32115Y97790D01*
X32115Y94615D02*
X32115Y100965D01*
X52435Y65786D02*
X52535Y65784D01*
X52634Y65778D01*
X52734Y65768D01*
X52832Y65755D01*
X52931Y65737D01*
X53028Y65716D01*
X53124Y65691D01*
X53220Y65662D01*
X53314Y65629D01*
X53407Y65593D01*
X53498Y65553D01*
X53588Y65509D01*
X53676Y65462D01*
X53762Y65412D01*
X53846Y65358D01*
X53928Y65301D01*
X54007Y65241D01*
X54085Y65177D01*
X54159Y65111D01*
X54231Y65042D01*
X54300Y64970D01*
X54366Y64896D01*
X54430Y64818D01*
X54490Y64739D01*
X54547Y64657D01*
X54601Y64573D01*
X54651Y64487D01*
X54698Y64399D01*
X54742Y64309D01*
X54782Y64218D01*
X54818Y64125D01*
X54851Y64031D01*
X54880Y63935D01*
X54905Y63839D01*
X54926Y63742D01*
X54944Y63643D01*
X54957Y63545D01*
X54967Y63445D01*
X54973Y63346D01*
X54975Y63246D01*
X54973Y63105D01*
X54968Y62964D01*
X54958Y62823D01*
X54945Y62682D01*
X54929Y62542D01*
X54908Y62402D01*
X54884Y62263D01*
X54856Y62124D01*
X54825Y61987D01*
X54790Y61850D01*
X54752Y61714D01*
X54710Y61579D01*
X54664Y61446D01*
X54615Y61313D01*
X54562Y61182D01*
X54506Y61053D01*
X54447Y60924D01*
X54384Y60798D01*
X54318Y60673D01*
X54249Y60550D01*
X54176Y60429D01*
X54100Y60310D01*
X54021Y60192D01*
X53940Y60077D01*
X53855Y59965D01*
X53767Y59854D01*
X53676Y59746D01*
X53583Y59640D01*
X53486Y59537D01*
X53387Y59436D01*
X46085Y59754D02*
X45985Y59756D01*
X45886Y59762D01*
X45786Y59772D01*
X45688Y59785D01*
X45589Y59803D01*
X45492Y59824D01*
X45396Y59849D01*
X45300Y59878D01*
X45206Y59911D01*
X45113Y59947D01*
X45022Y59987D01*
X44932Y60031D01*
X44844Y60078D01*
X44758Y60128D01*
X44674Y60182D01*
X44592Y60239D01*
X44513Y60299D01*
X44435Y60363D01*
X44361Y60429D01*
X44289Y60498D01*
X44220Y60570D01*
X44154Y60644D01*
X44090Y60722D01*
X44030Y60801D01*
X43973Y60883D01*
X43919Y60967D01*
X43869Y61053D01*
X43822Y61141D01*
X43778Y61231D01*
X43738Y61322D01*
X43702Y61415D01*
X43669Y61509D01*
X43640Y61605D01*
X43615Y61701D01*
X43594Y61798D01*
X43576Y61897D01*
X43563Y61995D01*
X43553Y62095D01*
X43547Y62194D01*
X43545Y62294D01*
X43547Y62427D01*
X43552Y62560D01*
X43562Y62693D01*
X43575Y62826D01*
X43592Y62958D01*
X43612Y63090D01*
X43636Y63221D01*
X43664Y63351D01*
X43695Y63481D01*
X43730Y63609D01*
X43769Y63737D01*
X43811Y63863D01*
X43857Y63988D01*
X43906Y64112D01*
X43958Y64235D01*
X44014Y64356D01*
X44074Y64475D01*
X44136Y64593D01*
X44202Y64708D01*
X44271Y64822D01*
X44344Y64934D01*
X44419Y65044D01*
X44498Y65152D01*
X48308Y61023D02*
X48256Y60939D01*
X48201Y60856D01*
X48142Y60776D01*
X48081Y60698D01*
X48017Y60623D01*
X47949Y60550D01*
X47879Y60479D01*
X47807Y60412D01*
X47732Y60347D01*
X47654Y60285D01*
X47574Y60226D01*
X47492Y60170D01*
X47408Y60118D01*
X47322Y60069D01*
X47234Y60023D01*
X47144Y59980D01*
X47053Y59941D01*
X46960Y59906D01*
X46866Y59874D01*
X46771Y59846D01*
X46675Y59821D01*
X46578Y59801D01*
X46480Y59783D01*
X46382Y59770D01*
X46283Y59761D01*
X46184Y59755D01*
X46085Y59753D01*
X50212Y64516D02*
X50264Y64600D01*
X50319Y64683D01*
X50378Y64763D01*
X50439Y64841D01*
X50503Y64916D01*
X50571Y64989D01*
X50641Y65060D01*
X50713Y65127D01*
X50788Y65192D01*
X50866Y65254D01*
X50946Y65313D01*
X51028Y65369D01*
X51112Y65421D01*
X51198Y65470D01*
X51286Y65516D01*
X51376Y65559D01*
X51467Y65598D01*
X51560Y65633D01*
X51654Y65665D01*
X51749Y65693D01*
X51845Y65718D01*
X51942Y65738D01*
X52040Y65756D01*
X52138Y65769D01*
X52237Y65778D01*
X52336Y65784D01*
X52435Y65786D01*
X50213Y64516D02*
X48308Y61024D01*
X43545Y69850D02*
X54975Y73660D01*
X43545Y77470D01*
X54975Y81915D02*
X54975Y85090D01*
X54973Y85201D01*
X54967Y85311D01*
X54958Y85422D01*
X54944Y85532D01*
X54927Y85641D01*
X54906Y85750D01*
X54881Y85858D01*
X54852Y85965D01*
X54820Y86071D01*
X54784Y86176D01*
X54744Y86279D01*
X54701Y86381D01*
X54654Y86482D01*
X54603Y86581D01*
X54550Y86678D01*
X54493Y86772D01*
X54432Y86865D01*
X54369Y86956D01*
X54302Y87045D01*
X54232Y87131D01*
X54159Y87214D01*
X54084Y87296D01*
X54006Y87374D01*
X53924Y87449D01*
X53841Y87522D01*
X53755Y87592D01*
X53666Y87659D01*
X53575Y87722D01*
X53482Y87783D01*
X53388Y87840D01*
X53291Y87893D01*
X53192Y87944D01*
X53091Y87991D01*
X52989Y88034D01*
X52886Y88074D01*
X52781Y88110D01*
X52675Y88142D01*
X52568Y88171D01*
X52460Y88196D01*
X52351Y88217D01*
X52242Y88234D01*
X52132Y88248D01*
X52021Y88257D01*
X51911Y88263D01*
X51800Y88265D01*
X51689Y88263D01*
X51579Y88257D01*
X51468Y88248D01*
X51358Y88234D01*
X51249Y88217D01*
X51140Y88196D01*
X51032Y88171D01*
X50925Y88142D01*
X50819Y88110D01*
X50714Y88074D01*
X50611Y88034D01*
X50509Y87991D01*
X50408Y87944D01*
X50309Y87893D01*
X50212Y87840D01*
X50118Y87783D01*
X50025Y87722D01*
X49934Y87659D01*
X49845Y87592D01*
X49759Y87522D01*
X49676Y87449D01*
X49594Y87374D01*
X49516Y87296D01*
X49441Y87214D01*
X49368Y87131D01*
X49298Y87045D01*
X49231Y86956D01*
X49168Y86865D01*
X49107Y86772D01*
X49050Y86677D01*
X48997Y86581D01*
X48946Y86482D01*
X48899Y86381D01*
X48856Y86279D01*
X48816Y86176D01*
X48780Y86071D01*
X48748Y85965D01*
X48719Y85858D01*
X48694Y85750D01*
X48673Y85641D01*
X48656Y85532D01*
X48642Y85422D01*
X48633Y85311D01*
X48627Y85201D01*
X48625Y85090D01*
X43545Y85725D02*
X43545Y81915D01*
X43545Y85725D02*
X43547Y85825D01*
X43553Y85924D01*
X43563Y86024D01*
X43576Y86122D01*
X43594Y86221D01*
X43615Y86318D01*
X43640Y86414D01*
X43669Y86510D01*
X43702Y86604D01*
X43738Y86697D01*
X43778Y86788D01*
X43822Y86878D01*
X43869Y86966D01*
X43919Y87052D01*
X43973Y87136D01*
X44030Y87218D01*
X44090Y87297D01*
X44154Y87375D01*
X44220Y87449D01*
X44289Y87521D01*
X44361Y87590D01*
X44435Y87656D01*
X44513Y87720D01*
X44592Y87780D01*
X44674Y87837D01*
X44758Y87891D01*
X44844Y87941D01*
X44932Y87988D01*
X45022Y88032D01*
X45113Y88072D01*
X45206Y88108D01*
X45300Y88141D01*
X45396Y88170D01*
X45492Y88195D01*
X45589Y88216D01*
X45688Y88234D01*
X45786Y88247D01*
X45886Y88257D01*
X45985Y88263D01*
X46085Y88265D01*
X46185Y88263D01*
X46284Y88257D01*
X46384Y88247D01*
X46482Y88234D01*
X46581Y88216D01*
X46678Y88195D01*
X46774Y88170D01*
X46870Y88141D01*
X46964Y88108D01*
X47057Y88072D01*
X47148Y88032D01*
X47238Y87988D01*
X47326Y87941D01*
X47412Y87891D01*
X47496Y87837D01*
X47578Y87780D01*
X47657Y87720D01*
X47735Y87656D01*
X47809Y87590D01*
X47881Y87521D01*
X47950Y87449D01*
X48016Y87375D01*
X48080Y87297D01*
X48140Y87218D01*
X48197Y87136D01*
X48251Y87052D01*
X48301Y86966D01*
X48348Y86878D01*
X48392Y86788D01*
X48432Y86697D01*
X48468Y86604D01*
X48501Y86510D01*
X48530Y86414D01*
X48555Y86318D01*
X48576Y86221D01*
X48594Y86122D01*
X48607Y86024D01*
X48617Y85924D01*
X48623Y85825D01*
X48625Y85725D01*
X48625Y83185D01*
M02*
