solid
 facet normal -1.000000e+00 -0.000000e+00 -0.000000e+00
   outer loop
     vertex -1.562500e+00  7.750000e-01  7.000000e-01
     vertex -1.562500e+00  7.750000e-01  0.000000e+00
     vertex -1.562500e+00 -7.750000e-01  7.000000e-01
   endloop
 endfacet
 facet normal -1.000000e+00  0.000000e+00  0.000000e+00
   outer loop
     vertex -1.562500e+00  7.750000e-01  0.000000e+00
     vertex -1.562500e+00 -7.750000e-01  0.000000e+00
     vertex -1.562500e+00 -7.750000e-01  7.000000e-01
   endloop
 endfacet
 facet normal  1.000000e+00 -0.000000e+00  0.000000e+00
   outer loop
     vertex -1.062500e+00 -7.750000e-01  7.000000e-01
     vertex -1.062500e+00  7.750000e-01  0.000000e+00
     vertex -1.062500e+00  7.750000e-01  7.000000e-01
   endloop
 endfacet
 facet normal  1.000000e+00 -0.000000e+00  0.000000e+00
   outer loop
     vertex -1.062500e+00 -7.750000e-01  7.000000e-01
     vertex -1.062500e+00 -7.750000e-01  0.000000e+00
     vertex -1.062500e+00  7.750000e-01  0.000000e+00
   endloop
 endfacet
 facet normal  0.000000e+00 -1.000000e+00  0.000000e+00
   outer loop
     vertex -1.562500e+00 -7.750000e-01  0.000000e+00
     vertex -1.062500e+00 -7.750000e-01  0.000000e+00
     vertex -1.062500e+00 -7.750000e-01  7.000000e-01
   endloop
 endfacet
 facet normal  0.000000e+00 -1.000000e+00  0.000000e+00
   outer loop
     vertex -1.562500e+00 -7.750000e-01  7.000000e-01
     vertex -1.562500e+00 -7.750000e-01  0.000000e+00
     vertex -1.062500e+00 -7.750000e-01  7.000000e-01
   endloop
 endfacet
 facet normal  0.000000e+00  1.000000e+00  0.000000e+00
   outer loop
     vertex -1.062500e+00  7.750000e-01  7.000000e-01
     vertex -1.062500e+00  7.750000e-01  0.000000e+00
     vertex -1.562500e+00  7.750000e-01  0.000000e+00
   endloop
 endfacet
 facet normal  0.000000e+00  1.000000e+00 -0.000000e+00
   outer loop
     vertex -1.062500e+00  7.750000e-01  7.000000e-01
     vertex -1.562500e+00  7.750000e-01  0.000000e+00
     vertex -1.562500e+00  7.750000e-01  7.000000e-01
   endloop
 endfacet
 facet normal  0.000000e+00  0.000000e+00 -1.000000e+00
   outer loop
     vertex -1.562500e+00 -7.750000e-01  0.000000e+00
     vertex -1.562500e+00  7.750000e-01  0.000000e+00
     vertex -1.062500e+00  7.750000e-01  0.000000e+00
   endloop
 endfacet
 facet normal  0.000000e+00  0.000000e+00 -1.000000e+00
   outer loop
     vertex -1.062500e+00 -7.750000e-01  0.000000e+00
     vertex -1.562500e+00 -7.750000e-01  0.000000e+00
     vertex -1.062500e+00  7.750000e-01  0.000000e+00
   endloop
 endfacet
 facet normal  0.000000e+00  0.000000e+00  1.000000e+00
   outer loop
     vertex -1.062500e+00  7.750000e-01  7.000000e-01
     vertex -1.562500e+00  7.750000e-01  7.000000e-01
     vertex -1.562500e+00 -7.750000e-01  7.000000e-01
   endloop
 endfacet
 facet normal -0.000000e+00  0.000000e+00  1.000000e+00
   outer loop
     vertex -1.062500e+00  7.750000e-01  7.000000e-01
     vertex -1.562500e+00 -7.750000e-01  7.000000e-01
     vertex -1.062500e+00 -7.750000e-01  7.000000e-01
   endloop
 endfacet
 facet normal -1.000000e+00 -0.000000e+00 -0.000000e+00
   outer loop
     vertex  1.062500e+00  7.750000e-01  7.000000e-01
     vertex  1.062500e+00  7.750000e-01  0.000000e+00
     vertex  1.062500e+00 -7.750000e-01  7.000000e-01
   endloop
 endfacet
 facet normal -1.000000e+00  0.000000e+00  0.000000e+00
   outer loop
     vertex  1.062500e+00  7.750000e-01  0.000000e+00
     vertex  1.062500e+00 -7.750000e-01  0.000000e+00
     vertex  1.062500e+00 -7.750000e-01  7.000000e-01
   endloop
 endfacet
 facet normal  1.000000e+00 -0.000000e+00  0.000000e+00
   outer loop
     vertex  1.562500e+00 -7.750000e-01  7.000000e-01
     vertex  1.562500e+00  7.750000e-01  0.000000e+00
     vertex  1.562500e+00  7.750000e-01  7.000000e-01
   endloop
 endfacet
 facet normal  1.000000e+00 -0.000000e+00  0.000000e+00
   outer loop
     vertex  1.562500e+00 -7.750000e-01  7.000000e-01
     vertex  1.562500e+00 -7.750000e-01  0.000000e+00
     vertex  1.562500e+00  7.750000e-01  0.000000e+00
   endloop
 endfacet
 facet normal  0.000000e+00 -1.000000e+00  0.000000e+00
   outer loop
     vertex  1.062500e+00 -7.750000e-01  0.000000e+00
     vertex  1.562500e+00 -7.750000e-01  0.000000e+00
     vertex  1.562500e+00 -7.750000e-01  7.000000e-01
   endloop
 endfacet
 facet normal  0.000000e+00 -1.000000e+00  0.000000e+00
   outer loop
     vertex  1.062500e+00 -7.750000e-01  7.000000e-01
     vertex  1.062500e+00 -7.750000e-01  0.000000e+00
     vertex  1.562500e+00 -7.750000e-01  7.000000e-01
   endloop
 endfacet
 facet normal  0.000000e+00  1.000000e+00  0.000000e+00
   outer loop
     vertex  1.562500e+00  7.750000e-01  7.000000e-01
     vertex  1.562500e+00  7.750000e-01  0.000000e+00
     vertex  1.062500e+00  7.750000e-01  0.000000e+00
   endloop
 endfacet
 facet normal  0.000000e+00  1.000000e+00 -0.000000e+00
   outer loop
     vertex  1.562500e+00  7.750000e-01  7.000000e-01
     vertex  1.062500e+00  7.750000e-01  0.000000e+00
     vertex  1.062500e+00  7.750000e-01  7.000000e-01
   endloop
 endfacet
 facet normal  0.000000e+00  0.000000e+00 -1.000000e+00
   outer loop
     vertex  1.062500e+00 -7.750000e-01  0.000000e+00
     vertex  1.062500e+00  7.750000e-01  0.000000e+00
     vertex  1.562500e+00  7.750000e-01  0.000000e+00
   endloop
 endfacet
 facet normal  0.000000e+00  0.000000e+00 -1.000000e+00
   outer loop
     vertex  1.562500e+00 -7.750000e-01  0.000000e+00
     vertex  1.062500e+00 -7.750000e-01  0.000000e+00
     vertex  1.562500e+00  7.750000e-01  0.000000e+00
   endloop
 endfacet
 facet normal  0.000000e+00  0.000000e+00  1.000000e+00
   outer loop
     vertex  1.562500e+00  7.750000e-01  7.000000e-01
     vertex  1.062500e+00  7.750000e-01  7.000000e-01
     vertex  1.062500e+00 -7.750000e-01  7.000000e-01
   endloop
 endfacet
 facet normal -0.000000e+00  0.000000e+00  1.000000e+00
   outer loop
     vertex  1.562500e+00  7.750000e-01  7.000000e-01
     vertex  1.062500e+00 -7.750000e-01  7.000000e-01
     vertex  1.562500e+00 -7.750000e-01  7.000000e-01
   endloop
 endfacet
 facet normal -1.000000e+00 -0.000000e+00 -0.000000e+00
   outer loop
     vertex -1.062500e+00  7.595000e-01  6.930000e-01
     vertex -1.062500e+00  7.595000e-01  7.000000e-03
     vertex -1.062500e+00 -7.595000e-01  6.930000e-01
   endloop
 endfacet
 facet normal -1.000000e+00  0.000000e+00  0.000000e+00
   outer loop
     vertex -1.062500e+00  7.595000e-01  7.000000e-03
     vertex -1.062500e+00 -7.595000e-01  7.000000e-03
     vertex -1.062500e+00 -7.595000e-01  6.930000e-01
   endloop
 endfacet
 facet normal  1.000000e+00 -0.000000e+00  0.000000e+00
   outer loop
     vertex  1.062500e+00 -7.595000e-01  6.930000e-01
     vertex  1.062500e+00  7.595000e-01  7.000000e-03
     vertex  1.062500e+00  7.595000e-01  6.930000e-01
   endloop
 endfacet
 facet normal  1.000000e+00 -0.000000e+00  0.000000e+00
   outer loop
     vertex  1.062500e+00 -7.595000e-01  6.930000e-01
     vertex  1.062500e+00 -7.595000e-01  7.000000e-03
     vertex  1.062500e+00  7.595000e-01  7.000000e-03
   endloop
 endfacet
 facet normal  0.000000e+00 -1.000000e+00  0.000000e+00
   outer loop
     vertex -1.062500e+00 -7.595000e-01  6.930000e-01
     vertex -1.062500e+00 -7.595000e-01  7.000000e-03
     vertex  1.062500e+00 -7.595000e-01  7.000000e-03
   endloop
 endfacet
 facet normal  0.000000e+00 -1.000000e+00  0.000000e+00
   outer loop
     vertex -1.062500e+00 -7.595000e-01  6.930000e-01
     vertex  1.062500e+00 -7.595000e-01  7.000000e-03
     vertex  1.062500e+00 -7.595000e-01  6.930000e-01
   endloop
 endfacet
 facet normal  0.000000e+00  1.000000e+00 -0.000000e+00
   outer loop
     vertex  1.062500e+00  7.595000e-01  7.000000e-03
     vertex -1.062500e+00  7.595000e-01  7.000000e-03
     vertex -1.062500e+00  7.595000e-01  6.930000e-01
   endloop
 endfacet
 facet normal  0.000000e+00  1.000000e+00  0.000000e+00
   outer loop
     vertex  1.062500e+00  7.595000e-01  6.930000e-01
     vertex  1.062500e+00  7.595000e-01  7.000000e-03
     vertex -1.062500e+00  7.595000e-01  6.930000e-01
   endloop
 endfacet
 facet normal  0.000000e+00  0.000000e+00 -1.000000e+00
   outer loop
     vertex -1.062500e+00 -7.595000e-01  7.000000e-03
     vertex -1.062500e+00  7.595000e-01  7.000000e-03
     vertex  1.062500e+00  7.595000e-01  7.000000e-03
   endloop
 endfacet
 facet normal  0.000000e+00  0.000000e+00 -1.000000e+00
   outer loop
     vertex  1.062500e+00 -7.595000e-01  7.000000e-03
     vertex -1.062500e+00 -7.595000e-01  7.000000e-03
     vertex  1.062500e+00  7.595000e-01  7.000000e-03
   endloop
 endfacet
 facet normal  0.000000e+00  0.000000e+00  1.000000e+00
   outer loop
     vertex  1.062500e+00  7.595000e-01  6.930000e-01
     vertex -1.062500e+00  7.595000e-01  6.930000e-01
     vertex -1.062500e+00 -7.595000e-01  6.930000e-01
   endloop
 endfacet
 facet normal -0.000000e+00  0.000000e+00  1.000000e+00
   outer loop
     vertex  1.062500e+00  7.595000e-01  6.930000e-01
     vertex -1.062500e+00 -7.595000e-01  6.930000e-01
     vertex  1.062500e+00 -7.595000e-01  6.930000e-01
   endloop
 endfacet
endsolid
