G04 EAGLE Gerber RS-274X export*
G75*
%MOMM*%
%FSLAX34Y34*%
%LPD*%
%INBottom Copper*%
%IPPOS*%
%AMOC8*
5,1,8,0,0,1.08239X$1,22.5*%
G01*
%ADD10P,1.732040X8X292.500000*%
%ADD11P,1.732040X8X22.500000*%
%ADD12P,1.732040X8X202.500000*%
%ADD13C,1.778000*%
%ADD14P,1.429621X8X202.500000*%
%ADD15P,1.429621X8X22.500000*%
%ADD16P,1.732040X8X112.500000*%
%ADD17C,0.152400*%


D10*
X287700Y177800D03*
X287700Y152400D03*
D11*
X120300Y108900D03*
X145700Y108900D03*
D10*
X518800Y136700D03*
X518800Y111300D03*
D11*
X410400Y222900D03*
X435800Y222900D03*
D12*
X442700Y42100D03*
X417300Y42100D03*
D11*
X19700Y172100D03*
X45100Y172100D03*
X554700Y118600D03*
X580100Y118600D03*
X307880Y49000D03*
X333280Y49000D03*
X120300Y145000D03*
X145700Y145000D03*
D13*
X718200Y248300D03*
X743600Y248300D03*
X591200Y19700D03*
X616600Y19700D03*
X743600Y197500D03*
X743600Y19700D03*
X692800Y248300D03*
X718200Y19700D03*
X692800Y19700D03*
X743600Y172100D03*
X540400Y19700D03*
X667400Y248300D03*
X463500Y19700D03*
X515000Y19700D03*
X667400Y19700D03*
X642000Y19700D03*
X413100Y19700D03*
X515000Y248300D03*
X70500Y19700D03*
X172100Y19700D03*
X616600Y248300D03*
X146700Y19700D03*
X197500Y19700D03*
X642000Y248300D03*
X591200Y248300D03*
X540400Y248300D03*
X565800Y248300D03*
X337200Y19700D03*
X362600Y19700D03*
X388000Y19700D03*
X349900Y248300D03*
X273700Y248300D03*
X299100Y248300D03*
X222900Y19700D03*
X222900Y248300D03*
X197500Y248300D03*
X172100Y248300D03*
X146700Y248300D03*
X248300Y248300D03*
X375300Y248300D03*
X95900Y248300D03*
X70500Y248300D03*
X489600Y19700D03*
X743600Y45100D03*
X324500Y248300D03*
X743600Y70500D03*
X743600Y95900D03*
X464200Y248300D03*
X438800Y248300D03*
X489600Y248300D03*
X400700Y248300D03*
X121300Y248300D03*
X45100Y248300D03*
X19700Y248300D03*
X19700Y19700D03*
X743600Y222900D03*
X273700Y19700D03*
X248300Y19700D03*
X121300Y19700D03*
X95900Y19700D03*
X45100Y19700D03*
X565800Y19700D03*
D14*
X146700Y216900D03*
X121300Y216900D03*
D15*
X299100Y32400D03*
X324500Y32400D03*
D16*
X193800Y115300D03*
X193800Y140700D03*
D17*
X197500Y20716D02*
X197500Y19700D01*
X565800Y247792D02*
X565800Y248300D01*
X743092Y46116D02*
X743600Y45100D01*
X122316Y247792D02*
X121300Y248300D01*
X18684Y20716D02*
X19700Y19700D01*
X20716Y247284D02*
X19700Y248300D01*
X287700Y152908D02*
X287700Y152400D01*
M02*
