G04 EAGLE Gerber RS-274X export*
G75*
%MOMM*%
%FSLAX34Y34*%
%LPD*%
%INTop Copper*%
%IPPOS*%
%AMOC8*
5,1,8,0,0,1.08239X$1,22.5*%
G01*
%ADD10P,1.732040X8X292.500000*%
%ADD11P,1.732040X8X22.500000*%
%ADD12P,1.732040X8X202.500000*%
%ADD13R,1.475000X0.300000*%
%ADD14C,1.778000*%
%ADD15P,1.429621X8X202.500000*%
%ADD16P,1.429621X8X22.500000*%
%ADD17P,1.732040X8X112.500000*%
%ADD18C,0.152400*%
%ADD19C,0.254000*%


D10*
X287700Y177800D03*
X287700Y152400D03*
D11*
X120300Y108900D03*
X145700Y108900D03*
D10*
X518800Y136700D03*
X518800Y111300D03*
D11*
X410400Y222900D03*
X435800Y222900D03*
D12*
X442700Y42100D03*
X417300Y42100D03*
D11*
X19700Y172100D03*
X45100Y172100D03*
X554700Y118600D03*
X580100Y118600D03*
X307880Y49000D03*
X333280Y49000D03*
X120300Y145000D03*
X145700Y145000D03*
D13*
G36*
X339885Y124097D02*
X329456Y113668D01*
X327335Y115789D01*
X337764Y126218D01*
X339885Y124097D01*
G37*
G36*
X343420Y120561D02*
X332991Y110132D01*
X330870Y112253D01*
X341299Y122682D01*
X343420Y120561D01*
G37*
G36*
X346956Y117026D02*
X336527Y106597D01*
X334406Y108718D01*
X344835Y119147D01*
X346956Y117026D01*
G37*
G36*
X350491Y113490D02*
X340062Y103061D01*
X337941Y105182D01*
X348370Y115611D01*
X350491Y113490D01*
G37*
G36*
X354027Y109955D02*
X343598Y99526D01*
X341477Y101647D01*
X351906Y112076D01*
X354027Y109955D01*
G37*
G36*
X357562Y106419D02*
X347133Y95990D01*
X345012Y98111D01*
X355441Y108540D01*
X357562Y106419D01*
G37*
G36*
X361098Y102884D02*
X350669Y92455D01*
X348548Y94576D01*
X358977Y105005D01*
X361098Y102884D01*
G37*
G36*
X364633Y99348D02*
X354204Y88919D01*
X352083Y91040D01*
X362512Y101469D01*
X364633Y99348D01*
G37*
G36*
X368169Y95812D02*
X357740Y85383D01*
X355619Y87504D01*
X366048Y97933D01*
X368169Y95812D01*
G37*
G36*
X371705Y92277D02*
X361276Y81848D01*
X359155Y83969D01*
X369584Y94398D01*
X371705Y92277D01*
G37*
G36*
X375240Y88741D02*
X364811Y78312D01*
X362690Y80433D01*
X373119Y90862D01*
X375240Y88741D01*
G37*
G36*
X378776Y85206D02*
X368347Y74777D01*
X366226Y76898D01*
X376655Y87327D01*
X378776Y85206D01*
G37*
G36*
X382311Y81670D02*
X371882Y71241D01*
X369761Y73362D01*
X380190Y83791D01*
X382311Y81670D01*
G37*
G36*
X385847Y78135D02*
X375418Y67706D01*
X373297Y69827D01*
X383726Y80256D01*
X385847Y78135D01*
G37*
G36*
X389382Y74599D02*
X378953Y64170D01*
X376832Y66291D01*
X387261Y76720D01*
X389382Y74599D01*
G37*
G36*
X392918Y71064D02*
X382489Y60635D01*
X380368Y62756D01*
X390797Y73185D01*
X392918Y71064D01*
G37*
G36*
X410603Y73185D02*
X421032Y62756D01*
X418911Y60635D01*
X408482Y71064D01*
X410603Y73185D01*
G37*
G36*
X414139Y76720D02*
X424568Y66291D01*
X422447Y64170D01*
X412018Y74599D01*
X414139Y76720D01*
G37*
G36*
X417674Y80256D02*
X428103Y69827D01*
X425982Y67706D01*
X415553Y78135D01*
X417674Y80256D01*
G37*
G36*
X421210Y83791D02*
X431639Y73362D01*
X429518Y71241D01*
X419089Y81670D01*
X421210Y83791D01*
G37*
G36*
X424745Y87327D02*
X435174Y76898D01*
X433053Y74777D01*
X422624Y85206D01*
X424745Y87327D01*
G37*
G36*
X428281Y90862D02*
X438710Y80433D01*
X436589Y78312D01*
X426160Y88741D01*
X428281Y90862D01*
G37*
G36*
X431816Y94398D02*
X442245Y83969D01*
X440124Y81848D01*
X429695Y92277D01*
X431816Y94398D01*
G37*
G36*
X435352Y97933D02*
X445781Y87504D01*
X443660Y85383D01*
X433231Y95812D01*
X435352Y97933D01*
G37*
G36*
X438888Y101469D02*
X449317Y91040D01*
X447196Y88919D01*
X436767Y99348D01*
X438888Y101469D01*
G37*
G36*
X442423Y105005D02*
X452852Y94576D01*
X450731Y92455D01*
X440302Y102884D01*
X442423Y105005D01*
G37*
G36*
X445959Y108540D02*
X456388Y98111D01*
X454267Y95990D01*
X443838Y106419D01*
X445959Y108540D01*
G37*
G36*
X449494Y112076D02*
X459923Y101647D01*
X457802Y99526D01*
X447373Y109955D01*
X449494Y112076D01*
G37*
G36*
X453030Y115611D02*
X463459Y105182D01*
X461338Y103061D01*
X450909Y113490D01*
X453030Y115611D01*
G37*
G36*
X456565Y119147D02*
X466994Y108718D01*
X464873Y106597D01*
X454444Y117026D01*
X456565Y119147D01*
G37*
G36*
X460101Y122682D02*
X470530Y112253D01*
X468409Y110132D01*
X457980Y120561D01*
X460101Y122682D01*
G37*
G36*
X463636Y126218D02*
X474065Y115789D01*
X471944Y113668D01*
X461515Y124097D01*
X463636Y126218D01*
G37*
G36*
X474065Y152211D02*
X463636Y141782D01*
X461515Y143903D01*
X471944Y154332D01*
X474065Y152211D01*
G37*
G36*
X470530Y155747D02*
X460101Y145318D01*
X457980Y147439D01*
X468409Y157868D01*
X470530Y155747D01*
G37*
G36*
X466994Y159282D02*
X456565Y148853D01*
X454444Y150974D01*
X464873Y161403D01*
X466994Y159282D01*
G37*
G36*
X463459Y162818D02*
X453030Y152389D01*
X450909Y154510D01*
X461338Y164939D01*
X463459Y162818D01*
G37*
G36*
X459923Y166353D02*
X449494Y155924D01*
X447373Y158045D01*
X457802Y168474D01*
X459923Y166353D01*
G37*
G36*
X456388Y169889D02*
X445959Y159460D01*
X443838Y161581D01*
X454267Y172010D01*
X456388Y169889D01*
G37*
G36*
X452852Y173424D02*
X442423Y162995D01*
X440302Y165116D01*
X450731Y175545D01*
X452852Y173424D01*
G37*
G36*
X449317Y176960D02*
X438888Y166531D01*
X436767Y168652D01*
X447196Y179081D01*
X449317Y176960D01*
G37*
G36*
X445781Y180496D02*
X435352Y170067D01*
X433231Y172188D01*
X443660Y182617D01*
X445781Y180496D01*
G37*
G36*
X442245Y184031D02*
X431816Y173602D01*
X429695Y175723D01*
X440124Y186152D01*
X442245Y184031D01*
G37*
G36*
X438710Y187567D02*
X428281Y177138D01*
X426160Y179259D01*
X436589Y189688D01*
X438710Y187567D01*
G37*
G36*
X435174Y191102D02*
X424745Y180673D01*
X422624Y182794D01*
X433053Y193223D01*
X435174Y191102D01*
G37*
G36*
X431639Y194638D02*
X421210Y184209D01*
X419089Y186330D01*
X429518Y196759D01*
X431639Y194638D01*
G37*
G36*
X428103Y198173D02*
X417674Y187744D01*
X415553Y189865D01*
X425982Y200294D01*
X428103Y198173D01*
G37*
G36*
X424568Y201709D02*
X414139Y191280D01*
X412018Y193401D01*
X422447Y203830D01*
X424568Y201709D01*
G37*
G36*
X421032Y205244D02*
X410603Y194815D01*
X408482Y196936D01*
X418911Y207365D01*
X421032Y205244D01*
G37*
G36*
X382489Y207365D02*
X392918Y196936D01*
X390797Y194815D01*
X380368Y205244D01*
X382489Y207365D01*
G37*
G36*
X378953Y203830D02*
X389382Y193401D01*
X387261Y191280D01*
X376832Y201709D01*
X378953Y203830D01*
G37*
G36*
X375418Y200294D02*
X385847Y189865D01*
X383726Y187744D01*
X373297Y198173D01*
X375418Y200294D01*
G37*
G36*
X371882Y196759D02*
X382311Y186330D01*
X380190Y184209D01*
X369761Y194638D01*
X371882Y196759D01*
G37*
G36*
X368347Y193223D02*
X378776Y182794D01*
X376655Y180673D01*
X366226Y191102D01*
X368347Y193223D01*
G37*
G36*
X364811Y189688D02*
X375240Y179259D01*
X373119Y177138D01*
X362690Y187567D01*
X364811Y189688D01*
G37*
G36*
X361276Y186152D02*
X371705Y175723D01*
X369584Y173602D01*
X359155Y184031D01*
X361276Y186152D01*
G37*
G36*
X357740Y182617D02*
X368169Y172188D01*
X366048Y170067D01*
X355619Y180496D01*
X357740Y182617D01*
G37*
G36*
X354204Y179081D02*
X364633Y168652D01*
X362512Y166531D01*
X352083Y176960D01*
X354204Y179081D01*
G37*
G36*
X350669Y175545D02*
X361098Y165116D01*
X358977Y162995D01*
X348548Y173424D01*
X350669Y175545D01*
G37*
G36*
X347133Y172010D02*
X357562Y161581D01*
X355441Y159460D01*
X345012Y169889D01*
X347133Y172010D01*
G37*
G36*
X343598Y168474D02*
X354027Y158045D01*
X351906Y155924D01*
X341477Y166353D01*
X343598Y168474D01*
G37*
G36*
X340062Y164939D02*
X350491Y154510D01*
X348370Y152389D01*
X337941Y162818D01*
X340062Y164939D01*
G37*
G36*
X336527Y161403D02*
X346956Y150974D01*
X344835Y148853D01*
X334406Y159282D01*
X336527Y161403D01*
G37*
G36*
X332991Y157868D02*
X343420Y147439D01*
X341299Y145318D01*
X330870Y155747D01*
X332991Y157868D01*
G37*
G36*
X329456Y154332D02*
X339885Y143903D01*
X337764Y141782D01*
X327335Y152211D01*
X329456Y154332D01*
G37*
D14*
X718200Y248300D03*
X743600Y248300D03*
X591200Y19700D03*
X616600Y19700D03*
X743600Y197500D03*
X743600Y19700D03*
X692800Y248300D03*
X718200Y19700D03*
X692800Y19700D03*
X743600Y172100D03*
X540400Y19700D03*
X667400Y248300D03*
X463500Y19700D03*
X515000Y19700D03*
X667400Y19700D03*
X642000Y19700D03*
X413100Y19700D03*
X515000Y248300D03*
X70500Y19700D03*
X172100Y19700D03*
X616600Y248300D03*
X146700Y19700D03*
X197500Y19700D03*
X642000Y248300D03*
X591200Y248300D03*
X540400Y248300D03*
X565800Y248300D03*
X337200Y19700D03*
X362600Y19700D03*
X388000Y19700D03*
X349900Y248300D03*
X273700Y248300D03*
X299100Y248300D03*
X222900Y19700D03*
X222900Y248300D03*
X197500Y248300D03*
X172100Y248300D03*
X146700Y248300D03*
X248300Y248300D03*
X375300Y248300D03*
X95900Y248300D03*
X70500Y248300D03*
X489600Y19700D03*
X743600Y45100D03*
X324500Y248300D03*
X743600Y70500D03*
X743600Y95900D03*
X464200Y248300D03*
X438800Y248300D03*
X489600Y248300D03*
X400700Y248300D03*
X121300Y248300D03*
X45100Y248300D03*
X19700Y248300D03*
X19700Y19700D03*
X743600Y222900D03*
X273700Y19700D03*
X248300Y19700D03*
X121300Y19700D03*
X95900Y19700D03*
X45100Y19700D03*
X565800Y19700D03*
D15*
X146700Y216900D03*
X121300Y216900D03*
D16*
X299100Y32400D03*
X324500Y32400D03*
D17*
X193800Y115300D03*
X193800Y140700D03*
D18*
X346852Y162448D02*
X347752Y162199D01*
D19*
X146700Y207000D02*
X146700Y216900D01*
X309951Y200000D02*
X347752Y162199D01*
X309951Y200000D02*
X153000Y200000D01*
X153000Y200700D02*
X146700Y207000D01*
X153000Y200700D02*
X153000Y200000D01*
D18*
X413908Y202072D02*
X414757Y201090D01*
D19*
X435800Y248300D02*
X438800Y248300D01*
X435800Y248300D02*
X410400Y222900D01*
X413908Y219392D01*
X413908Y202072D01*
X375808Y77104D02*
X343666Y44962D01*
D18*
X375808Y77104D02*
X376036Y77516D01*
D19*
X343666Y44962D02*
X337318Y44962D01*
X333280Y49000D01*
X333280Y41180D01*
X324500Y32400D01*
D18*
X146208Y109916D02*
X145700Y108900D01*
D19*
X193800Y115300D02*
X269106Y115300D01*
X193800Y115300D02*
X152100Y115300D01*
X145700Y108900D01*
X269106Y115300D02*
X290893Y95000D01*
X349560Y100077D02*
X351287Y102265D01*
X349560Y100077D02*
X343566Y95000D01*
X290893Y95000D01*
X386476Y202072D02*
X386476Y234076D01*
X400700Y248300D01*
D18*
X386476Y202072D02*
X386643Y201090D01*
D19*
X421828Y194019D02*
X439914Y212105D01*
X440271Y212105D01*
X446595Y218429D01*
X446595Y218786D01*
X464425Y236616D01*
X477916Y236616D01*
X489600Y248300D01*
X616600Y66500D02*
X616600Y19700D01*
X616600Y66500D02*
X464664Y66500D01*
X439506Y91658D01*
X642000Y53736D02*
X642000Y19700D01*
X642000Y53736D02*
X623664Y72072D01*
X466420Y72072D02*
X443042Y95194D01*
X466420Y72072D02*
X623664Y72072D01*
X667400Y38496D02*
X667400Y19700D01*
X667400Y38496D02*
X627760Y78136D01*
X467171Y78136D02*
X446577Y98730D01*
X467171Y78136D02*
X627760Y78136D01*
D18*
X450484Y101488D02*
X450113Y102265D01*
D19*
X469178Y83200D01*
X654700Y83200D01*
X692800Y45100D01*
X692800Y19700D01*
D18*
X455056Y104536D02*
X453648Y105801D01*
D19*
X718200Y32400D02*
X718200Y19700D01*
X469613Y89836D02*
X453648Y105801D01*
X469613Y89836D02*
X660764Y89836D01*
X718200Y32400D01*
D18*
X458104Y109108D02*
X457184Y109336D01*
D19*
X471620Y94900D01*
X668400Y94900D01*
X743600Y19700D01*
D18*
X436768Y87772D02*
X435970Y88123D01*
D19*
X462657Y61436D01*
X591200Y61436D01*
X591200Y19700D01*
D18*
X433720Y83200D02*
X432435Y84587D01*
D19*
X579516Y55372D02*
X579516Y33416D01*
X565800Y19700D01*
X579516Y55372D02*
X461548Y55372D01*
X433720Y83200D01*
D18*
X428899Y81052D02*
X429148Y80152D01*
D19*
X540400Y19700D02*
X555894Y35194D01*
X541780Y49308D01*
X459992Y49308D01*
X429148Y80152D01*
X413100Y20508D02*
X413100Y19700D01*
D18*
X413908Y66436D02*
X414757Y66910D01*
D19*
X400700Y52852D01*
X400700Y32400D01*
X401208Y32400D01*
X413100Y20508D01*
X473137Y151732D02*
X735932Y151732D01*
D18*
X473137Y151732D02*
X467790Y148057D01*
D19*
X735932Y151732D02*
X743600Y159400D01*
X743600Y172100D01*
D18*
X465903Y153241D02*
X464255Y151593D01*
X465903Y153241D02*
X465881Y153418D01*
X742858Y197500D02*
X743600Y197500D01*
D19*
X470762Y158100D02*
X464255Y151593D01*
X470762Y158100D02*
X687800Y158100D01*
X727200Y197500D02*
X742858Y197500D01*
X727200Y197500D02*
X687800Y158100D01*
D18*
X461660Y156352D02*
X460719Y155128D01*
D19*
X470391Y164800D01*
X677800Y164800D01*
X735900Y222900D01*
X743600Y222900D01*
D18*
X458104Y159400D02*
X457184Y158664D01*
D19*
X470512Y171992D01*
X673292Y171992D01*
X743600Y242300D01*
X743600Y248300D01*
D18*
X718200Y241300D02*
X718200Y235092D01*
X455056Y162448D02*
X453648Y162199D01*
D19*
X717800Y235200D02*
X718200Y235600D01*
X718200Y241300D01*
X718200Y248300D01*
X718447Y235200D02*
X717800Y235200D01*
X470505Y179056D02*
X453648Y162199D01*
X470505Y179056D02*
X662303Y179056D01*
X718447Y235200D01*
D18*
X388000Y65552D02*
X386643Y66910D01*
D19*
X388000Y65552D02*
X388000Y19700D01*
X375300Y62880D02*
X381904Y69484D01*
X375300Y62880D02*
X375300Y32400D01*
X362600Y19700D01*
D18*
X381904Y69484D02*
X383107Y70445D01*
D19*
X379159Y73597D02*
X362944Y57112D01*
D18*
X379572Y73670D02*
X379572Y73981D01*
X379572Y73670D02*
X379159Y73597D01*
D19*
X366833Y49333D02*
X337200Y19700D01*
X366833Y49333D02*
X362944Y57112D01*
X357597Y73219D02*
X368965Y84587D01*
X357597Y73219D02*
X355129Y70516D01*
X299096Y70516D01*
X286131Y57800D01*
X261000Y57800D01*
X222900Y19700D01*
D18*
X365430Y88123D02*
X366664Y89296D01*
D19*
X365430Y88123D02*
X353307Y76000D01*
X253800Y76000D02*
X197500Y19700D01*
X253800Y76000D02*
X353307Y76000D01*
D18*
X360568Y90820D02*
X361894Y91658D01*
D19*
X351314Y81079D01*
X350615Y80500D01*
X179770Y80500D01*
X172100Y70500D02*
X172100Y19700D01*
X172100Y70500D02*
X179770Y80500D01*
X146700Y60713D02*
X146700Y19700D01*
X146700Y60713D02*
X166822Y86000D01*
X349164Y86000D01*
X358358Y95194D01*
X336184Y115204D02*
X331612Y110632D01*
X297068Y110632D01*
X242204Y165496D01*
X88000Y165496D01*
D18*
X336184Y115204D02*
X337145Y116407D01*
D19*
X70500Y19700D02*
X58816Y31384D01*
X58816Y136312D02*
X88000Y165496D01*
X58816Y136312D02*
X58816Y31384D01*
D18*
X450113Y165735D02*
X450484Y167020D01*
D19*
X450113Y165735D02*
X469498Y185120D01*
X655386Y185120D01*
X692800Y222534D01*
X692800Y248300D01*
D18*
X447436Y170068D02*
X446577Y169270D01*
D19*
X667400Y209882D02*
X667400Y248300D01*
X451583Y174276D02*
X446577Y169270D01*
X451583Y174276D02*
X452301Y174276D01*
X469209Y191184D01*
X648702Y191184D01*
X667400Y209882D01*
D18*
X446786Y175514D02*
X444388Y173116D01*
X443042Y172806D01*
D19*
X642000Y211229D02*
X642000Y248300D01*
X449574Y178340D02*
X448117Y176883D01*
X446767Y175533D01*
X443042Y172806D02*
X467484Y197248D01*
X628019Y197248D01*
X642000Y211229D01*
D18*
X448117Y176883D02*
X447500Y177500D01*
X443042Y172806D01*
X616364Y248064D02*
X616600Y248300D01*
D19*
X466962Y203798D02*
X439506Y176342D01*
X616600Y217000D02*
X616600Y248300D01*
X616600Y217000D02*
X603398Y203798D01*
X466962Y203798D01*
X591200Y215900D02*
X591200Y248300D01*
X441694Y184883D02*
X440976Y184883D01*
X435970Y179877D01*
X584676Y209376D02*
X591200Y215900D01*
X466188Y209376D02*
X441694Y184883D01*
X466188Y209376D02*
X584676Y209376D01*
D18*
X432435Y183413D02*
X432196Y182260D01*
D19*
X464462Y215440D02*
X556000Y215440D01*
X464462Y215440D02*
X432435Y183413D01*
D18*
X557000Y215440D02*
X558000Y215440D01*
X557000Y215440D02*
X556000Y215440D01*
D19*
X557000Y215440D02*
X565800Y224240D01*
X565800Y248300D01*
X433905Y191954D02*
X428899Y186948D01*
X433905Y191954D02*
X434623Y191954D01*
X428899Y186948D02*
X463455Y221504D01*
X540400Y233000D02*
X540400Y248300D01*
X540400Y233000D02*
X528904Y221504D01*
X463455Y221504D01*
X493268Y226568D02*
X515000Y248300D01*
X443440Y208560D02*
X425364Y190484D01*
X443440Y208560D02*
X461448Y226568D01*
X493268Y226568D01*
X311622Y205400D02*
X184499Y205400D01*
X146700Y248300D01*
D18*
X349900Y167020D02*
X351287Y165735D01*
D19*
X311622Y205400D01*
D18*
X354472Y170068D02*
X354823Y169270D01*
D19*
X195131Y212000D02*
X172100Y230258D01*
X172100Y248300D01*
X312093Y212000D02*
X354823Y169270D01*
X312093Y212000D02*
X195131Y212000D01*
D18*
X357520Y173116D02*
X358358Y172806D01*
D19*
X207720Y227860D02*
X197500Y248300D01*
X313236Y217400D02*
X357520Y173116D01*
X218180Y217400D02*
X207720Y227860D01*
X218180Y217400D02*
X313236Y217400D01*
D18*
X360568Y177688D02*
X361894Y176342D01*
D19*
X222900Y230000D02*
X222900Y248300D01*
X361100Y177340D02*
X361894Y176342D01*
X361100Y177340D02*
X351586Y186543D01*
X351586Y186567D01*
X316154Y221999D01*
X230901Y221999D02*
X222900Y230000D01*
X230901Y221999D02*
X316154Y221999D01*
X248300Y234000D02*
X248300Y248300D01*
D18*
X365140Y180736D02*
X365430Y179877D01*
D19*
X365430Y179903D01*
X317080Y227000D01*
X255300Y227000D02*
X248300Y234000D01*
X255300Y227000D02*
X317080Y227000D01*
D18*
X368188Y183784D02*
X368965Y183413D01*
D19*
X281320Y234000D02*
X273700Y248300D01*
X319000Y232816D02*
X368965Y183413D01*
X317828Y233000D02*
X317516Y233010D01*
X311507Y233200D01*
X318314Y232816D02*
X319000Y232816D01*
X311507Y233200D02*
X282120Y233200D01*
X281320Y234000D01*
D18*
X317500Y232500D02*
X318314Y232816D01*
X317516Y233010D02*
X317500Y232500D01*
X371236Y188356D02*
X372501Y186948D01*
D19*
X372501Y187399D01*
X323371Y236529D02*
X311800Y238000D01*
X299100Y248300D01*
X323371Y236529D02*
X372501Y187399D01*
X375808Y191404D02*
X363616Y203596D01*
X363616Y211883D02*
X363616Y219344D01*
X363616Y211883D02*
X363616Y203596D01*
D18*
X375808Y191404D02*
X376036Y190484D01*
D19*
X363108Y223019D02*
X328956Y248300D01*
X324500Y248300D01*
X363108Y212391D02*
X363616Y211883D01*
X363108Y212391D02*
X363108Y223019D01*
X369000Y206644D02*
X378856Y194452D01*
D18*
X379572Y194019D01*
D19*
X369000Y206644D02*
X369000Y233307D01*
X349900Y248300D01*
X375300Y248300D02*
X375300Y205362D01*
X383107Y197555D01*
D18*
X343804Y159400D02*
X344216Y158664D01*
D19*
X307380Y195500D01*
X110000Y195500D01*
X95900Y209600D01*
X95900Y248300D01*
X70500Y248300D02*
X87989Y199637D01*
X339682Y155128D02*
X340681Y155128D01*
X339682Y155128D02*
X304811Y190000D01*
X97626Y190000D02*
X87989Y199637D01*
X97626Y190000D02*
X304811Y190000D01*
D18*
X425364Y77516D02*
X426100Y77104D01*
D19*
X515000Y19700D02*
X527700Y32400D01*
X527269Y32400D02*
X516888Y43000D01*
X527269Y32400D02*
X527700Y32400D01*
X459880Y43000D02*
X425364Y77516D01*
X459880Y43000D02*
X516888Y43000D01*
D18*
X347752Y105801D02*
X346852Y104536D01*
X146208Y146016D02*
X145700Y145000D01*
D19*
X189500Y145000D02*
X193800Y140700D01*
X189500Y145000D02*
X145700Y145000D01*
X254713Y140700D02*
X289964Y105935D01*
X254713Y140700D02*
X193800Y140700D01*
X341951Y100000D02*
X347752Y105801D01*
X341951Y100000D02*
X295899Y100000D01*
X289964Y105935D01*
X670100Y118600D02*
X743600Y45100D01*
X670100Y118600D02*
X580100Y118600D01*
X121300Y216900D02*
X121300Y248300D01*
D18*
X298084Y32400D02*
X299100Y32400D01*
D19*
X286400Y19700D01*
X273700Y19700D01*
X120300Y108900D02*
X120300Y145000D01*
X120300Y108900D02*
X95900Y84500D01*
X95900Y19700D01*
X418519Y70445D02*
X424899Y64065D01*
X418519Y70445D02*
X418293Y70445D01*
X424899Y64065D02*
X417300Y42100D01*
X444815Y19700D02*
X463500Y19700D01*
X444815Y19700D02*
X417300Y42100D01*
D18*
X423052Y72532D02*
X421828Y73981D01*
D19*
X442700Y53109D01*
X442700Y42100D01*
X490700Y38100D02*
X498100Y30700D01*
X490700Y38100D02*
X446700Y38100D01*
X442700Y42100D01*
X498100Y30700D02*
X498100Y28200D01*
X489600Y19700D01*
X418293Y197555D02*
X428800Y208062D01*
X428800Y215900D02*
X435800Y222900D01*
X428800Y215900D02*
X428800Y208062D01*
X461200Y248300D02*
X464200Y248300D01*
X461200Y248300D02*
X435800Y222900D01*
X461152Y112156D02*
X473344Y99964D01*
D18*
X461152Y112156D02*
X460719Y112872D01*
D19*
X536064Y99964D02*
X554700Y118600D01*
X536064Y99964D02*
X473344Y99964D01*
X19700Y172100D02*
X19700Y19700D01*
X135591Y60982D02*
X158132Y90500D01*
D18*
X354472Y98440D02*
X354823Y98730D01*
D19*
X135591Y60982D02*
X121300Y32400D01*
X121300Y19700D01*
X346593Y90500D02*
X354823Y98730D01*
X346593Y90500D02*
X158132Y90500D01*
D18*
X333136Y147208D02*
X333610Y148057D01*
X287700Y152400D02*
X287700Y152908D01*
D19*
X287700Y152400D02*
X260051Y178500D01*
X74509Y178500D01*
X19700Y248300D01*
X329363Y152304D02*
X333610Y148057D01*
X329363Y152304D02*
X328855Y152400D01*
X287700Y152400D01*
D18*
X336184Y151780D02*
X337145Y151593D01*
X287700Y177292D02*
X287700Y177800D01*
X287700Y178816D01*
D19*
X287700Y177800D02*
X281700Y183800D01*
X293400Y172100D02*
X316638Y172100D01*
X293400Y172100D02*
X287700Y177800D01*
X316638Y172100D02*
X337145Y151593D01*
X78029Y193418D02*
X45100Y248300D01*
X78029Y193418D02*
X87647Y183800D01*
X281700Y183800D01*
D18*
X465724Y115204D02*
X470296Y110632D01*
X465724Y115204D02*
X464255Y116407D01*
D19*
X537992Y130492D02*
X683608Y130492D01*
X743600Y70500D01*
D18*
X519308Y111300D02*
X518800Y111300D01*
D19*
X537992Y130492D01*
X518800Y111300D02*
X518132Y110632D01*
X470296Y110632D01*
X468772Y119776D02*
X501876Y119776D01*
X518800Y136700D01*
D18*
X468772Y119776D02*
X467790Y119943D01*
D19*
X702800Y136700D02*
X743600Y95900D01*
X702800Y136700D02*
X518800Y136700D01*
D18*
X333610Y119943D02*
X333136Y121300D01*
D19*
X333610Y119943D02*
X319126Y134427D01*
X59001Y172093D02*
X45100Y172100D01*
X59001Y172093D02*
X251920Y171997D01*
X288900Y133000D01*
X319126Y134427D01*
X45100Y172100D02*
X45100Y19700D01*
D18*
X371236Y80152D02*
X372501Y81052D01*
X248808Y20716D02*
X248300Y19700D01*
D19*
X273700Y45100D01*
X306750Y45100D01*
X307880Y49000D01*
D18*
X372174Y81052D02*
X372501Y81052D01*
D19*
X317881Y66380D02*
X307880Y49000D01*
X317881Y66380D02*
X358233Y66380D01*
X371730Y79876D01*
X371730Y80281D01*
X372501Y81052D01*
M02*
