G04 EAGLE Gerber RS-274X export*
G75*
%MOMM*%
%FSLAX34Y34*%
%LPD*%
%INSolderpaste Top*%
%IPPOS*%
%AMOC8*
5,1,8,0,0,1.08239X$1,22.5*%
G01*
%ADD10R,1.475000X0.300000*%


D10*
G36*
X339885Y124097D02*
X329456Y113668D01*
X327335Y115789D01*
X337764Y126218D01*
X339885Y124097D01*
G37*
G36*
X343420Y120561D02*
X332991Y110132D01*
X330870Y112253D01*
X341299Y122682D01*
X343420Y120561D01*
G37*
G36*
X346956Y117026D02*
X336527Y106597D01*
X334406Y108718D01*
X344835Y119147D01*
X346956Y117026D01*
G37*
G36*
X350491Y113490D02*
X340062Y103061D01*
X337941Y105182D01*
X348370Y115611D01*
X350491Y113490D01*
G37*
G36*
X354027Y109955D02*
X343598Y99526D01*
X341477Y101647D01*
X351906Y112076D01*
X354027Y109955D01*
G37*
G36*
X357562Y106419D02*
X347133Y95990D01*
X345012Y98111D01*
X355441Y108540D01*
X357562Y106419D01*
G37*
G36*
X361098Y102884D02*
X350669Y92455D01*
X348548Y94576D01*
X358977Y105005D01*
X361098Y102884D01*
G37*
G36*
X364633Y99348D02*
X354204Y88919D01*
X352083Y91040D01*
X362512Y101469D01*
X364633Y99348D01*
G37*
G36*
X368169Y95812D02*
X357740Y85383D01*
X355619Y87504D01*
X366048Y97933D01*
X368169Y95812D01*
G37*
G36*
X371705Y92277D02*
X361276Y81848D01*
X359155Y83969D01*
X369584Y94398D01*
X371705Y92277D01*
G37*
G36*
X375240Y88741D02*
X364811Y78312D01*
X362690Y80433D01*
X373119Y90862D01*
X375240Y88741D01*
G37*
G36*
X378776Y85206D02*
X368347Y74777D01*
X366226Y76898D01*
X376655Y87327D01*
X378776Y85206D01*
G37*
G36*
X382311Y81670D02*
X371882Y71241D01*
X369761Y73362D01*
X380190Y83791D01*
X382311Y81670D01*
G37*
G36*
X385847Y78135D02*
X375418Y67706D01*
X373297Y69827D01*
X383726Y80256D01*
X385847Y78135D01*
G37*
G36*
X389382Y74599D02*
X378953Y64170D01*
X376832Y66291D01*
X387261Y76720D01*
X389382Y74599D01*
G37*
G36*
X392918Y71064D02*
X382489Y60635D01*
X380368Y62756D01*
X390797Y73185D01*
X392918Y71064D01*
G37*
G36*
X410603Y73185D02*
X421032Y62756D01*
X418911Y60635D01*
X408482Y71064D01*
X410603Y73185D01*
G37*
G36*
X414139Y76720D02*
X424568Y66291D01*
X422447Y64170D01*
X412018Y74599D01*
X414139Y76720D01*
G37*
G36*
X417674Y80256D02*
X428103Y69827D01*
X425982Y67706D01*
X415553Y78135D01*
X417674Y80256D01*
G37*
G36*
X421210Y83791D02*
X431639Y73362D01*
X429518Y71241D01*
X419089Y81670D01*
X421210Y83791D01*
G37*
G36*
X424745Y87327D02*
X435174Y76898D01*
X433053Y74777D01*
X422624Y85206D01*
X424745Y87327D01*
G37*
G36*
X428281Y90862D02*
X438710Y80433D01*
X436589Y78312D01*
X426160Y88741D01*
X428281Y90862D01*
G37*
G36*
X431816Y94398D02*
X442245Y83969D01*
X440124Y81848D01*
X429695Y92277D01*
X431816Y94398D01*
G37*
G36*
X435352Y97933D02*
X445781Y87504D01*
X443660Y85383D01*
X433231Y95812D01*
X435352Y97933D01*
G37*
G36*
X438888Y101469D02*
X449317Y91040D01*
X447196Y88919D01*
X436767Y99348D01*
X438888Y101469D01*
G37*
G36*
X442423Y105005D02*
X452852Y94576D01*
X450731Y92455D01*
X440302Y102884D01*
X442423Y105005D01*
G37*
G36*
X445959Y108540D02*
X456388Y98111D01*
X454267Y95990D01*
X443838Y106419D01*
X445959Y108540D01*
G37*
G36*
X449494Y112076D02*
X459923Y101647D01*
X457802Y99526D01*
X447373Y109955D01*
X449494Y112076D01*
G37*
G36*
X453030Y115611D02*
X463459Y105182D01*
X461338Y103061D01*
X450909Y113490D01*
X453030Y115611D01*
G37*
G36*
X456565Y119147D02*
X466994Y108718D01*
X464873Y106597D01*
X454444Y117026D01*
X456565Y119147D01*
G37*
G36*
X460101Y122682D02*
X470530Y112253D01*
X468409Y110132D01*
X457980Y120561D01*
X460101Y122682D01*
G37*
G36*
X463636Y126218D02*
X474065Y115789D01*
X471944Y113668D01*
X461515Y124097D01*
X463636Y126218D01*
G37*
G36*
X474065Y152211D02*
X463636Y141782D01*
X461515Y143903D01*
X471944Y154332D01*
X474065Y152211D01*
G37*
G36*
X470530Y155747D02*
X460101Y145318D01*
X457980Y147439D01*
X468409Y157868D01*
X470530Y155747D01*
G37*
G36*
X466994Y159282D02*
X456565Y148853D01*
X454444Y150974D01*
X464873Y161403D01*
X466994Y159282D01*
G37*
G36*
X463459Y162818D02*
X453030Y152389D01*
X450909Y154510D01*
X461338Y164939D01*
X463459Y162818D01*
G37*
G36*
X459923Y166353D02*
X449494Y155924D01*
X447373Y158045D01*
X457802Y168474D01*
X459923Y166353D01*
G37*
G36*
X456388Y169889D02*
X445959Y159460D01*
X443838Y161581D01*
X454267Y172010D01*
X456388Y169889D01*
G37*
G36*
X452852Y173424D02*
X442423Y162995D01*
X440302Y165116D01*
X450731Y175545D01*
X452852Y173424D01*
G37*
G36*
X449317Y176960D02*
X438888Y166531D01*
X436767Y168652D01*
X447196Y179081D01*
X449317Y176960D01*
G37*
G36*
X445781Y180496D02*
X435352Y170067D01*
X433231Y172188D01*
X443660Y182617D01*
X445781Y180496D01*
G37*
G36*
X442245Y184031D02*
X431816Y173602D01*
X429695Y175723D01*
X440124Y186152D01*
X442245Y184031D01*
G37*
G36*
X438710Y187567D02*
X428281Y177138D01*
X426160Y179259D01*
X436589Y189688D01*
X438710Y187567D01*
G37*
G36*
X435174Y191102D02*
X424745Y180673D01*
X422624Y182794D01*
X433053Y193223D01*
X435174Y191102D01*
G37*
G36*
X431639Y194638D02*
X421210Y184209D01*
X419089Y186330D01*
X429518Y196759D01*
X431639Y194638D01*
G37*
G36*
X428103Y198173D02*
X417674Y187744D01*
X415553Y189865D01*
X425982Y200294D01*
X428103Y198173D01*
G37*
G36*
X424568Y201709D02*
X414139Y191280D01*
X412018Y193401D01*
X422447Y203830D01*
X424568Y201709D01*
G37*
G36*
X421032Y205244D02*
X410603Y194815D01*
X408482Y196936D01*
X418911Y207365D01*
X421032Y205244D01*
G37*
G36*
X382489Y207365D02*
X392918Y196936D01*
X390797Y194815D01*
X380368Y205244D01*
X382489Y207365D01*
G37*
G36*
X378953Y203830D02*
X389382Y193401D01*
X387261Y191280D01*
X376832Y201709D01*
X378953Y203830D01*
G37*
G36*
X375418Y200294D02*
X385847Y189865D01*
X383726Y187744D01*
X373297Y198173D01*
X375418Y200294D01*
G37*
G36*
X371882Y196759D02*
X382311Y186330D01*
X380190Y184209D01*
X369761Y194638D01*
X371882Y196759D01*
G37*
G36*
X368347Y193223D02*
X378776Y182794D01*
X376655Y180673D01*
X366226Y191102D01*
X368347Y193223D01*
G37*
G36*
X364811Y189688D02*
X375240Y179259D01*
X373119Y177138D01*
X362690Y187567D01*
X364811Y189688D01*
G37*
G36*
X361276Y186152D02*
X371705Y175723D01*
X369584Y173602D01*
X359155Y184031D01*
X361276Y186152D01*
G37*
G36*
X357740Y182617D02*
X368169Y172188D01*
X366048Y170067D01*
X355619Y180496D01*
X357740Y182617D01*
G37*
G36*
X354204Y179081D02*
X364633Y168652D01*
X362512Y166531D01*
X352083Y176960D01*
X354204Y179081D01*
G37*
G36*
X350669Y175545D02*
X361098Y165116D01*
X358977Y162995D01*
X348548Y173424D01*
X350669Y175545D01*
G37*
G36*
X347133Y172010D02*
X357562Y161581D01*
X355441Y159460D01*
X345012Y169889D01*
X347133Y172010D01*
G37*
G36*
X343598Y168474D02*
X354027Y158045D01*
X351906Y155924D01*
X341477Y166353D01*
X343598Y168474D01*
G37*
G36*
X340062Y164939D02*
X350491Y154510D01*
X348370Y152389D01*
X337941Y162818D01*
X340062Y164939D01*
G37*
G36*
X336527Y161403D02*
X346956Y150974D01*
X344835Y148853D01*
X334406Y159282D01*
X336527Y161403D01*
G37*
G36*
X332991Y157868D02*
X343420Y147439D01*
X341299Y145318D01*
X330870Y155747D01*
X332991Y157868D01*
G37*
G36*
X329456Y154332D02*
X339885Y143903D01*
X337764Y141782D01*
X327335Y152211D01*
X329456Y154332D01*
G37*
M02*
